HIERARCHY
ROOT Hips
{
	OFFSET 0.00000 0.00000 0.00000
	CHANNELS 6 Xposition Yposition Zposition Zrotation Yrotation Xrotation 
	JOINT LHipJoint
	{
		OFFSET 0 0 0
		CHANNELS 3 Zrotation Yrotation Xrotation
		JOINT LeftHip
		{
			OFFSET 1.40252 -1.71424 0.59123
			CHANNELS 3 Zrotation Yrotation Xrotation
			JOINT LeftKnee
			{
				OFFSET 2.50071 -6.87065 0.00000
				CHANNELS 3 Zrotation Yrotation Xrotation
				JOINT LeftAnkle
				{
					OFFSET 2.50834 -6.89162 0.00000
					CHANNELS 3 Zrotation Yrotation Xrotation
					JOINT LeftToe
					{
						OFFSET 0.21528 -0.59149 1.64448
						CHANNELS 3 Zrotation Yrotation Xrotation
						End Site
						{
							OFFSET 0.00000 -0.00000 0.87921
						}
					}
				}
			}
		}
	}
	JOINT RHipJoint
	{
		OFFSET 0 0 0
		CHANNELS 3 Zrotation Yrotation Xrotation
		JOINT RightHip
		{
			OFFSET -1.53651 -1.71424 0.59123
			CHANNELS 3 Zrotation Yrotation Xrotation
			JOINT RightKnee
			{
				OFFSET -2.45783 -6.75285 0.00000
				CHANNELS 3 Zrotation Yrotation Xrotation
				JOINT RightAnkle
				{
					OFFSET -2.51921 -6.92147 0.00000
					CHANNELS 3 Zrotation Yrotation Xrotation
					JOINT RightToe
					{
						OFFSET -0.21777 -0.59831 1.59676
						CHANNELS 3 Zrotation Yrotation Xrotation
						End Site
						{
							OFFSET -0.00000 -0.00000 0.85779
						}
					}
				}
			}
		}
	}
	JOINT lowerback
	{
		OFFSET 0 0 0
		CHANNELS 3 Zrotation Yrotation Xrotation
		JOINT Chest
		{
			OFFSET 0.02212 2.07622 0.03776
			CHANNELS 3 Zrotation Yrotation Xrotation
			JOINT Chest2
			{
				OFFSET -0.00949 2.08009 -0.00123
				CHANNELS 3 Zrotation Yrotation Xrotation
				JOINT lowerneck
				{
					OFFSET 0 0 0
					CHANNELS 3 Zrotation Yrotation Xrotation
					JOINT Neck
					{
						OFFSET 0.00288 1.67184 0.11155
						CHANNELS 3 Zrotation Yrotation Xrotation
						JOINT Head
						{
							OFFSET -0.02412 1.66997 -0.22040
							CHANNELS 3 Zrotation Yrotation Xrotation
							End Site
							{
								OFFSET -0.01026 1.69043 -0.08683
							}
						}
					}
				}
				JOINT LeftCollar
				{
					OFFSET 0 0 0
					CHANNELS 3 Zrotation Yrotation Xrotation
					JOINT LeftShoulder
					{
						OFFSET 3.97941 0.74048 0.81462
CHANNELS 3 Zrotation Xrotation Yrotation
						JOINT LeftElbow
						{
OFFSET 0 -5.018340 -0.000000
CHANNELS 3 Zrotation Xrotation Yrotation
							JOINT LeftWrist
							{
OFFSET 0 -3.486900 0.000000
CHANNELS 3 Zrotation Xrotation Yrotation
								JOINT lhand
								{
									OFFSET 0 0 0
CHANNELS 3 Zrotation Xrotation Yrotation
									JOINT LFingers
									{
OFFSET 0 -0.767990 0.000000
CHANNELS 3 Zrotation Xrotation Yrotation
										End Site
										{
OFFSET 0 -0.619170 0.000000
										}
									}
								}
								JOINT LThumb
								{
OFFSET 0 0.000000 0.000000
CHANNELS 3 Zrotation Xrotation Yrotation
									End Site
									{
OFFSET 0 -0.628630 0.628630
									}
								}
							}
						}
					}
				}
				JOINT RightCollar
				{
					OFFSET 0 0 0
					CHANNELS 3 Zrotation Yrotation Xrotation
					JOINT RightShoulder
					{
						OFFSET -3.88702 1.02123 0.44091
CHANNELS 3 Zrotation Xrotation Yrotation
						JOINT RightElbow
						{
OFFSET 0 -4.701640 0.000000
CHANNELS 3 Zrotation Xrotation Yrotation
							JOINT RightWrist
							{
OFFSET 0 -3.499110 0.000000
CHANNELS 3 Zrotation Xrotation Yrotation
								JOINT rhand
								{
									OFFSET 0 0 0
CHANNELS 3 Zrotation Xrotation Yrotation
									JOINT RFingers
									{
OFFSET 0 -0.739330 0.000000
CHANNELS 3 Zrotation Xrotation Yrotation
										End Site
										{
OFFSET 0 -0.596070 0.000000
										}
									}
								}
								JOINT RThumb
								{
OFFSET 0 0.000000 0.000000
CHANNELS 3 Zrotation Xrotation Yrotation
									End Site
									{
OFFSET 0 -0.605170 0.605170
									}
								}
							}
						}
					}
				}
			}
		}
	}
}
MOTION
Frames: 9
Frame Time: 0.008333333333333333
-11.305000 17.605500 -0.293800 -48.496900 84.637300 -36.673900 0.000000 0.000000 0.000000 -16.429100 -0.855200 -11.093300 0.324100 3.659100 10.119600 1.382900 0.819600 -22.542200 0.587400 4.907300 13.644300 0.000000 0.000000 0.000000 21.797900 9.345300 -13.604300 -0.549100 -4.747100 13.188700 -0.444900 -5.747500 -16.015600 -0.007500 -0.561000 1.541500 10.404000 1.376500 -11.258400 -3.067000 0.834500 -2.526900 -9.078900 0.562600 3.826700 -2.774200 -7.882400 -16.600600 9.406700 50.190200 9.304900 -179.742000 66.246000 35.437800 -0.000000 -0.000000 0.000000 10.175400 5.270000 -73.293800 129.754500 -53.094000 93.629700 20.927400 -22.834500 -46.249800 0.000000 0.000000 0.000000 -7.125000 0.000000 0.000000 -36.240200 75.793600 26.963900 -0.000000 -0.000000 0.000000 1.452600 12.342100 71.145300 -128.016100 -53.765000 -92.233500 -23.386300 -15.209500 -3.516400 0.000000 0.000000 0.000000 7.125000 0.000000 -0.000000 2.453400 26.148400 1.122100
-11.249455 17.603722 -0.224525 -48.921929 84.257978 -37.042769 0.000000 0.000000 0.000000 -15.829776 -1.134707 -10.885552 0.335622 3.722863 10.298294 1.388131 1.319520 -22.777725 0.605714 4.981542 13.855918 0.000000 0.000000 0.000000 22.477161 9.308093 -13.145973 -0.507173 -4.565270 12.672577 -0.454135 -5.695499 -16.089851 -0.000222 -0.092198 0.253239 6.033493 0.920254 -13.017158 0.724246 0.395784 -1.552096 -2.569481 0.354840 5.699272 -5.810674 -7.009143 -17.886093 8.414321 52.665245 9.436710 178.862240 65.694037 34.465031 0.000000 0.000000 0.000000 3.660677 3.578401 -70.991921 126.628857 -54.267820 91.110851 -0.707757 -31.089661 -47.517069 0.000000 0.000000 0.000000 -7.125000 0.000000 0.000000 -59.302376 68.833030 38.448418 0.000000 0.000000 0.000000 -4.431224 11.112223 70.782942 -128.344368 -53.641849 -92.497997 -23.626748 -15.634889 -3.301844 0.000000 0.000000 0.000000 7.125000 0.000000 0.000000 2.271203 26.375394 1.026519
-11.184271 17.602295 -0.160397 -50.076355 83.733713 -38.747835 0.000000 0.000000 0.000000 -15.054149 -0.703790 -10.085426 0.335414 3.721735 10.295034 1.403881 1.607364 -23.019861 0.598317 4.951687 13.770760 0.000000 0.000000 0.000000 23.459763 9.385310 -11.914839 -0.475889 -4.423926 12.272374 -0.469901 -5.722440 -16.306854 -0.000100 0.060273 -0.165724 6.468145 1.588079 -12.947876 0.543778 1.227998 -1.457294 -2.854922 0.779295 5.848978 -3.871151 -7.572237 -17.780780 9.070729 52.695911 10.009691 177.421836 62.551636 33.608011 0.000000 0.000000 0.000000 5.062819 3.450166 -73.808593 127.235361 -54.051405 91.602612 9.048544 -27.610264 -46.927528 0.000000 0.000000 0.000000 -7.125000 0.000000 0.000000 -49.766166 71.830984 34.128221 0.000000 0.000000 0.000000 -2.497434 11.351252 68.924576 -127.470739 -53.966014 -91.793053 -23.792207 -15.437293 -3.675775 0.000000 0.000000 0.000000 7.125000 0.000000 0.000000 2.145396 25.962938 0.990338
-11.128056 17.586607 -0.107349 -52.945593 83.569515 -42.003609 0.000000 0.000000 0.000000 -14.483683 -0.970275 -9.529092 0.372703 3.920961 10.854293 1.466260 1.770475 -23.579076 0.657717 5.187043 14.442863 0.000000 0.000000 0.000000 24.199921 9.498493 -11.125554 -0.478979 -4.438297 12.313148 -0.516682 -5.903678 -17.014475 -0.002035 0.290451 -0.798046 6.990141 1.646530 -12.521460 0.666885 1.257742 -1.410697 -3.019381 0.800419 5.672627 -2.579299 -7.704004 -18.096474 9.096896 53.191614 10.261485 176.779531 59.320893 33.173359 0.000000 0.000000 0.000000 5.430421 3.207621 -74.208785 127.184056 -54.069949 91.561049 9.116985 -27.681826 -47.127521 0.000000 0.000000 0.000000 -7.125000 0.000000 0.000000 -50.211025 71.973205 34.616218 0.000000 0.000000 0.000000 -1.767332 12.039041 68.358023 -127.317838 -54.021591 -91.669305 -24.193810 -14.749288 -3.508408 0.000000 0.000000 0.000000 7.125000 0.000000 0.000000 1.840273 26.133800 0.841979
-11.073868 17.572060 -0.059935 -57.057163 83.620991 -46.274889 0.000000 0.000000 0.000000 -14.037729 -0.886429 -9.450574 0.407462 4.097647 11.351526 1.511787 1.726152 -23.912324 0.591089 4.921753 13.685629 0.000000 0.000000 0.000000 24.738105 9.369305 -10.750183 -0.480901 -4.447006 12.337791 -0.538724 -6.068222 -17.401252 -0.001635 0.262309 -0.720714 7.425004 1.644470 -12.286390 0.802109 1.217852 -1.497965 -3.132620 0.782056 5.450566 -1.481748 -7.967138 -18.154783 9.131078 54.028946 10.637013 177.263549 56.996955 33.651055 0.000000 0.000000 0.000000 5.609773 3.048809 -74.689456 127.075585 -54.108907 91.473139 9.235556 -27.728526 -47.012243 0.000000 0.000000 0.000000 -7.125000 0.000000 0.000000 -49.814209 71.947356 34.279783 0.000000 0.000000 0.000000 -1.507992 12.611077 67.775847 -127.735006 -53.869117 -92.006538 -23.695498 -14.878567 -3.481273 0.000000 0.000000 0.000000 7.125000 0.000000 0.000000 2.218807 26.177664 1.012832
-11.005248 17.562203 -0.016921 -61.165439 83.550816 -50.755862 0.000000 0.000000 0.000000 -13.489972 -0.972702 -8.663220 0.398834 4.054827 11.230890 1.539092 1.642163 -24.086702 0.581846 4.884021 13.578153 0.000000 0.000000 0.000000 25.391706 9.017339 -10.101064 -0.482913 -4.456231 12.363958 -0.552757 -6.018966 -17.524279 -0.001253 -0.206940 0.568536 7.948963 1.597738 -11.899720 0.964514 1.110495 -1.418851 -3.278560 0.736389 5.314153 -0.924737 -8.029696 -18.370379 8.925605 54.194550 10.600693 176.874686 54.957214 33.312375 0.000000 0.000000 0.000000 5.568155 2.593826 -75.064161 126.884680 -54.177200 91.318470 9.093189 -27.874883 -47.297637 0.000000 0.000000 0.000000 -7.125000 0.000000 0.000000 -50.666540 72.064086 35.064122 0.000000 0.000000 0.000000 -1.703383 13.086604 67.418097 -128.247775 -53.678049 -92.420178 -23.368748 -14.719327 -3.189838 0.000000 0.000000 0.000000 7.125000 0.000000 0.000000 2.467928 26.504021 1.108321
-10.926170 17.553125 0.028477 -66.578491 83.541420 -56.132554 0.000000 0.000000 0.000000 -12.931558 -0.653261 -8.503142 0.396974 4.045422 11.204592 1.572994 1.045765 -24.109877 0.629834 5.077967 14.131077 0.000000 0.000000 0.000000 25.951290 8.597131 -9.912635 -0.482516 -4.454384 12.358596 -0.578856 -5.903745 -17.730721 -0.005570 -0.482637 1.326204 8.455037 1.534393 -11.963011 1.062831 0.961786 -1.524011 -3.483504 0.669923 5.225862 -0.389743 -8.235098 -18.244410 8.676738 54.040555 10.512242 176.791579 53.014263 33.063984 0.000000 0.000000 0.000000 5.357247 2.329037 -75.612364 126.671038 -54.252963 91.145090 9.042525 -27.960275 -47.400711 0.000000 0.000000 0.000000 -7.125000 0.000000 0.000000 -50.976350 72.105685 35.350087 0.000000 0.000000 0.000000 -2.253992 13.806370 67.188741 -129.117112 -53.345312 -93.119141 -23.779814 -14.538525 -3.251436 0.000000 0.000000 0.000000 7.125000 0.000000 0.000000 2.154758 26.426354 0.971394
-10.835544 17.548491 0.083618 -75.030035 83.618239 -64.288063 0.000000 0.000000 0.000000 -12.269479 -0.580534 -8.604803 0.392903 4.024913 11.146759 1.588860 0.196945 -23.923786 0.648280 5.150407 14.338114 0.000000 0.000000 0.000000 26.545604 8.278074 -9.729037 -0.457645 -4.339485 12.033674 -0.591886 -6.301426 -18.183649 -0.005868 -0.493813 1.356744 8.780577 1.359973 -12.425262 1.180990 0.646323 -1.614140 -3.589727 0.526594 5.349151 -0.120141 -8.294502 -18.362108 8.553731 54.033545 10.448876 176.582169 51.998361 32.891148 0.000000 0.000000 0.000000 4.917134 1.830576 -76.253748 126.199377 -54.417824 90.761871 9.015588 -28.079483 -47.814947 0.000000 0.000000 0.000000 -7.125000 0.000000 0.000000 -52.085191 72.331168 36.457724 0.000000 0.000000 0.000000 -3.196661 14.241595 66.778226 -129.978943 -53.003873 -93.808979 -24.188783 -15.127021 -4.265628 0.000000 0.000000 0.000000 7.125000 0.000000 0.000000 1.848759 25.305053 0.881600
-10.737567 17.541311 0.140725 -81.006766 83.438799 -70.353139 0.000000 0.000000 0.000000 -11.562082 -0.370299 -8.166907 0.384385 3.981467 11.024486 1.622073 -0.425348 -23.969449 0.680056 5.272554 14.687619 0.000000 0.000000 0.000000 27.297323 8.232258 -9.008526 -0.438394 -4.248568 11.776984 -0.626385 -6.750309 -18.910419 -0.005262 -0.464735 1.277081 9.116272 1.272835 -12.332689 1.267072 0.498512 -1.656503 -3.712878 0.456146 5.234959 0.331265 -8.401256 -18.548221 8.517167 54.169615 10.449427 176.599653 51.166063 32.973406 0.000000 0.000000 0.000000 4.416271 1.535457 -77.196196 125.744479 -54.573976 90.391563 9.598043 -27.644910 -48.293278 0.000000 0.000000 0.000000 -7.125000 0.000000 0.000000 -52.897992 72.804795 37.589031 0.000000 0.000000 0.000000 -4.290387 14.461970 66.217875 -130.647102 -52.731048 -94.341735 -23.971870 -15.139084 -4.273228 0.000000 0.000000 0.000000 7.125000 0.000000 0.000000 2.012110 25.304562 0.959593
